<svg width="167" height="55" fill="none" xmlns="http://www.w3.org/2000/svg"><g clip-path="url(#clip0)" fill="#F5F6F7"><path d="M55.22 9.158h-9.195v9.159h9.195V9.158z"/><path d="M36.78 36.634v-9.159h-9.195v-9.158h9.195V9.158h9.244V0H0v55h55.22V27.475h-9.196v9.159H36.78z"/><path d="M45.974 18.317H36.78v9.158h9.195v-9.158zm22.318-1.733l4.572 8.267H75.5l4.572-8.267v10.099h3.927V9.158H80.07l-5.865 10.446-5.914-10.446h-3.927v17.525h3.927v-10.1zm30.168 6.931l-3.628-.842c-.646.743-1.59 1.188-2.585 1.139-1.441.05-2.733-.891-3.18-2.277h9.691c.1-.446.15-.891.15-1.337 0-3.812-3.082-6.881-6.91-6.881-3.826 0-6.908 3.07-6.908 6.881-.05 1.832.696 3.614 2.038 4.901 1.342 1.287 3.181 2.03 5.07 1.93a6.851 6.851 0 006.262-3.514zM92 16.585a3.25 3.25 0 013.081 2.227h-5.964A2.969 2.969 0 0192 16.584zm17.794 9.207v.891h3.727V7.921h-3.727v6.634c-1.044-.793-2.287-1.189-3.629-1.189-1.69-.05-3.28.694-4.423 1.98-1.193 1.337-1.84 3.07-1.74 4.902-.05 1.782.597 3.514 1.74 4.9 2.137 2.228 5.616 2.525 8.052.644zm-5.865-5.643a3.02 3.02 0 012.833-3.12h.099c.795 0 1.541.298 2.038.892.547.594.895 1.386.845 2.228.099 1.633-1.193 3.069-2.833 3.168h-.05c-1.64 0-2.932-1.337-2.932-3.168zM75.05 36.386c-.795-.495-1.69-.842-2.634-1.09-1.391-.445-2.286-.692-2.634-.84-.994-.397-1.441-.892-1.441-1.387 0-.841.894-1.436 2.087-1.436s2.088.595 2.336 1.387l3.927-.94a4.912 4.912 0 00-2.237-2.922c-1.193-.792-2.634-1.188-4.076-1.188-1.59-.05-3.13.446-4.373 1.485a5.014 5.014 0 00-1.64 3.862c0 .89.248 1.782.745 2.574a6.062 6.062 0 001.79 1.584l1.192.594 1.243.446c.298.099.745.247 1.342.396l.248.099c.795.198 1.54.544 2.187 1.04a.971.971 0 01.447.841c0 .94-1.143 1.584-2.584 1.584-1.59 0-2.783-.792-3.032-1.782l-3.976.94a5.655 5.655 0 002.435 3.218c1.392.842 2.982 1.288 4.573 1.238a6.872 6.872 0 004.722-1.535c1.192-.99 1.888-2.524 1.838-4.06-.149-2.128-.993-3.365-2.485-4.108zm8.898-8.416h-3.926v4.852h-1.79v3.267h1.79v5.594c0 1.139.447 2.228 1.292 2.97.845.793 1.988 1.189 3.131 1.189h2.436v-3.515h-1.84c-.844 0-1.142-.594-1.142-1.386v-4.902h2.932v-3.267h-2.933V27.97h.05zm13.567 5.693a5.865 5.865 0 00-3.578-1.188c-1.69 0-3.28.693-4.374 1.98-1.193 1.337-1.79 3.07-1.74 4.901a7.16 7.16 0 001.74 4.901c2.087 2.278 5.566 2.624 8.002.743v.89h3.728V32.773h-3.728v.891h-.05zm-2.982 8.763c-1.64 0-2.883-1.337-2.883-3.169-.1-1.633 1.193-3.02 2.833-3.118h.05c.795 0 1.54.296 2.038.89.547.595.895 1.387.845 2.179.05 1.881-1.243 3.218-2.883 3.218zm15.409-9.951a4.227 4.227 0 00-3.529 1.634v-1.337h-3.727v13.02h3.727v-7.327c-.049-1.337.945-2.426 2.287-2.475 1.341-.05 2.435.94 2.485 2.277v7.574h3.777v-8.366c.05-2.723-2.137-4.95-4.821-5h-.199zm15.705 1.188a5.866 5.866 0 00-3.579-1.188 5.86 5.86 0 00-4.423 1.98c-1.193 1.337-1.789 3.07-1.74 4.901a7.164 7.164 0 001.74 4.901c2.087 2.278 5.566 2.624 8.002.743v.891h3.728V27.03h-3.728v6.633zm-2.982 8.763c-1.64 0-2.883-1.337-2.883-3.169-.099-1.633 1.193-3.02 2.833-3.118h.05c.795 0 1.541.297 2.038.89.546.595.894 1.387.844 2.179.05 1.881-1.292 3.218-2.882 3.218zm17.447-8.763a5.867 5.867 0 00-3.579-1.188 5.86 5.86 0 00-4.423 1.98c-1.193 1.337-1.79 3.07-1.74 4.901a7.159 7.159 0 001.74 4.901c2.087 2.278 5.566 2.624 8.002.743v.89h3.727V32.773h-3.727v.891zm-2.982 8.763c-1.641 0-2.883-1.337-2.883-3.169-.1-1.633 1.193-3.02 2.833-3.118h.05c.795 0 1.491.346 2.037.89.547.595.895 1.387.845 2.179.05 1.881-1.242 3.218-2.882 3.218zm11.828-8.268v-1.336h-3.728v13.02h3.728v-7.03a2.563 2.563 0 012.485-2.673h.149c.497 0 .945.098 1.342.346v-4.01c-1.789 0-3.081.545-3.976 1.683zm14.365-7.128v6.633a5.868 5.868 0 00-3.579-1.188 5.86 5.86 0 00-4.423 1.98c-1.193 1.337-1.79 3.07-1.74 4.901a7.159 7.159 0 001.74 4.901c2.087 2.278 5.566 2.624 8.002.743v.891h3.727V27.03h-3.727zm-2.982 15.396c-1.641 0-2.883-1.337-2.883-3.169-.1-1.633 1.193-3.02 2.833-3.118h.05c.795 0 1.54.346 2.037.89.547.595.895 1.387.845 2.179.05 1.881-1.242 3.218-2.882 3.218z"/></g><defs><clipPath id="clip0"><path fill="#fff" d="M0 0h167v55H0z"/></clipPath></defs></svg>